<svg width="24" height="24" viewBox="0 0 24 24" fill="none" xmlns="http://www.w3.org/2000/svg">
<g id="R icon">
<g id="vuesax/outline/message-question">
<g id="message-question">
<path id="Vector" d="M7.52556 21.4496L7.52557 21.4495L7.51929 21.4462C7.2035 21.28 7 20.9403 7 20.5699V20.56C7 21.0839 7.35878 21.3419 7.49413 21.4231C7.7148 21.5555 8.1288 21.6661 8.54267 21.4027L8.54907 21.3986L8.55539 21.3944L13.0054 18.4345L13.0061 18.434C13.0062 18.4339 13.0072 18.4333 13.0091 18.4324C13.011 18.4315 13.0129 18.4307 13.0146 18.4302C13.0149 18.4301 13.015 18.43 13.0152 18.43H17.01C18.4648 18.43 19.7298 17.9559 20.6328 17.0528C21.1448 16.5409 21.5189 15.9126 21.7469 15.1993C21.5147 15.9472 21.1317 16.5776 20.6347 17.0746C19.7859 17.9233 18.5482 18.4399 17 18.4399H13.23H13.0029L12.8139 18.5658L8.55895 21.4026C8.55822 21.4031 8.55749 21.4036 8.55676 21.4041C8.39003 21.5127 8.19391 21.5699 8 21.5699C7.84198 21.5699 7.67441 21.5297 7.52556 21.4496ZM20.6347 3.80527C20.8615 4.03207 21.0646 4.28665 21.2404 4.5675C21.0664 4.29231 20.8636 4.03789 20.6328 3.8071C20.402 3.5763 20.1476 3.37352 19.8724 3.19951C20.1533 3.37536 20.4079 3.57845 20.6347 3.80527ZM3.36533 3.80527C3.76761 3.403 4.25724 3.07535 4.8259 2.84195C4.27833 3.07117 3.78994 3.39433 3.37717 3.8071C2.59944 4.58483 2.13984 5.631 2.02727 6.83572C2.14409 5.5677 2.63005 4.54055 3.36533 3.80527ZM7 18.473L6.32658 18.4039C4.986 18.2663 3.91643 17.7118 3.18048 16.8756C2.44349 16.0383 2 14.8715 2 13.4399V13.43C2 14.8848 2.47413 16.1498 3.37717 17.0528C4.28021 17.9559 5.54516 18.43 7 18.43V18.473Z" fill="black" stroke="#111322" stroke-width="1.5"/>
<path id="Vector_2" d="M11.9998 6.85986C12.9141 6.85986 13.6598 7.60575 13.6598 8.5199C13.6598 7.60409 12.9156 6.85986 11.9998 6.85986ZM11.9998 6.85986C11.0855 6.85986 10.3398 7.60575 10.3398 8.5199C10.3398 7.60409 11.0841 6.85986 11.9998 6.85986Z" fill="black" stroke="#111322" stroke-width="1.5"/>
<path id="Vector_3" d="M12 14.1001C11.8605 14.1001 11.75 13.9883 11.75 13.8501C11.75 13.7162 11.8661 13.6001 12 13.6001C12.1339 13.6001 12.25 13.7162 12.25 13.8501C12.25 13.9883 12.1395 14.1001 12 14.1001Z" fill="black" stroke="black"/>
</g>
</g>
</g>
</svg>
